<svg width="145" height="62" viewBox="0 0 145 62" fill="none" xmlns="http://www.w3.org/2000/svg">
<path d="M7.22727 52.2642C6 52.2642 4.92898 51.983 4.0142 51.4205C3.09943 50.858 2.3892 50.071 1.88352 49.0597C1.37784 48.0483 1.125 46.8665 1.125 45.5142C1.125 44.1562 1.37784 42.9687 1.88352 41.9517C2.3892 40.9347 3.09943 40.1449 4.0142 39.5824C4.92898 39.0199 6 38.7386 7.22727 38.7386C8.45455 38.7386 9.52557 39.0199 10.4403 39.5824C11.3551 40.1449 12.0653 40.9347 12.571 41.9517C13.0767 42.9687 13.3295 44.1562 13.3295 45.5142C13.3295 46.8665 13.0767 48.0483 12.571 49.0597C12.0653 50.071 11.3551 50.858 10.4403 51.4205C9.52557 51.983 8.45455 52.2642 7.22727 52.2642ZM7.2358 50.125C8.03125 50.125 8.69034 49.9148 9.21307 49.4943C9.7358 49.0739 10.1222 48.5142 10.3722 47.8153C10.6278 47.1165 10.7557 46.3466 10.7557 45.5057C10.7557 44.6705 10.6278 43.9034 10.3722 43.2045C10.1222 42.5 9.7358 41.9347 9.21307 41.5085C8.69034 41.0824 8.03125 40.8693 7.2358 40.8693C6.43466 40.8693 5.76989 41.0824 5.24148 41.5085C4.71875 41.9347 4.32955 42.5 4.07386 43.2045C3.82386 43.9034 3.69886 44.6705 3.69886 45.5057C3.69886 46.3466 3.82386 47.1165 4.07386 47.8153C4.32955 48.5142 4.71875 49.0739 5.24148 49.4943C5.76989 49.9148 6.43466 50.125 7.2358 50.125ZM18.7223 44.2273V52H16.174V38.9091H18.62V41.0398H18.782C19.0831 40.3466 19.5547 39.7898 20.1967 39.3693C20.8445 38.9489 21.6598 38.7386 22.6428 38.7386C23.5348 38.7386 24.3161 38.9261 24.9865 39.3011C25.657 39.6705 26.1768 40.2216 26.5462 40.9545C26.9155 41.6875 27.1001 42.5937 27.1001 43.6733V52H24.5518V43.9801C24.5518 43.0312 24.3047 42.2898 23.8104 41.7557C23.3161 41.2159 22.6371 40.946 21.7734 40.946C21.1825 40.946 20.657 41.0739 20.1967 41.3295C19.7422 41.5852 19.3814 41.9602 19.1143 42.4545C18.853 42.9432 18.7223 43.5341 18.7223 44.2273Z" fill="white"/>
<path d="M111.864 39.8722C110.3 40.2323 106.183 40.4396 106.183 40.4396L105.662 42.0764C105.662 42.0764 107.715 41.9018 109.214 42.0546C109.214 42.0546 109.702 42 109.757 42.6111C109.778 43.1785 109.713 43.7896 109.713 43.7896C109.713 43.7896 109.681 44.1606 109.159 44.2479C108.595 44.3461 104.728 44.488 104.728 44.488L104.098 46.6158C104.098 46.6158 103.87 47.1068 104.391 46.965C104.88 46.834 108.931 46.0702 109.463 46.1793C110.028 46.3212 110.658 47.0741 110.473 47.7724C110.256 48.6236 106.216 51.2206 103.751 51.0351C103.751 51.0351 102.458 51.1224 101.361 49.3656C100.34 47.6961 101.752 44.5207 101.752 44.5207C101.752 44.5207 101.111 43.0367 101.578 42.5456C101.578 42.5456 101.861 42.2947 102.664 42.2292L103.653 40.1668C103.653 40.1668 102.523 40.2432 101.85 39.4139C101.22 38.6173 101.177 38.2572 101.654 38.039C102.165 37.788 106.868 36.926 110.104 37.0351C110.104 37.0351 111.234 36.926 112.2 38.8901C112.189 38.8901 112.667 39.6867 111.864 39.8722ZM99.6886 47.7943C99.2759 48.7764 98.179 49.8239 96.8214 49.1692C95.4746 48.5145 93.335 44.1169 93.335 44.1169C93.335 44.1169 92.5205 42.4802 92.3684 42.5129C92.3684 42.5129 92.1946 42.1965 92.086 43.986C91.9774 45.7756 92.1077 49.2565 91.4018 49.8021C90.7284 50.3477 89.9139 50.1294 89.4903 49.4856C89.1102 48.8527 88.9472 47.3469 89.1536 44.7062C89.4034 42.0655 90.0116 39.2502 90.7936 38.3664C91.5756 37.4934 92.2055 38.1263 92.4444 38.3554C92.4444 38.3554 93.4871 39.3048 95.214 42.0982L95.5181 42.6111C95.5181 42.6111 97.082 45.2518 97.2449 45.2409C97.2449 45.2409 97.3753 45.3609 97.4839 45.2736C97.6468 45.23 97.5816 44.3788 97.5816 44.3788C97.5816 44.3788 97.2558 41.509 95.833 36.6423C95.833 36.6423 95.6158 36.0312 95.7679 35.4638C95.909 34.8855 96.4847 35.1583 96.4847 35.1583C96.4847 35.1583 98.7003 36.2713 99.7646 39.894C100.818 43.5495 100.101 46.8122 99.6886 47.7943ZM88.806 38.4864C88.6214 38.8574 88.5128 39.3921 87.5788 39.5339C87.5788 39.5339 78.6403 40.145 78.2167 40.7779C78.2167 40.7779 77.9018 41.1489 78.3905 41.258C78.8792 41.3562 80.8994 41.629 81.8768 41.6836C82.9195 41.6945 86.4384 41.7272 87.6982 43.3095C87.6982 43.3095 88.4476 44.0624 88.4151 45.7647C88.3825 47.5106 88.0784 48.1216 87.405 48.7545C86.699 49.3438 80.6387 52.0718 76.7288 47.8816C76.7288 47.8816 74.9259 45.8629 77.3479 44.3352C77.3479 44.3352 79.0965 43.2767 83.5385 44.5207C83.5385 44.5207 84.8853 45.0117 84.8201 45.5028C84.7441 46.0265 83.7123 46.5831 82.2135 46.5503C80.7582 46.5067 79.6938 45.8083 79.9002 45.9174C80.0956 45.9938 78.3362 45.0663 77.7931 45.6992C77.2501 46.2775 77.3804 46.6376 77.9126 46.9977C79.2702 47.7725 84.516 47.4997 86.08 45.7537C86.08 45.7537 86.699 45.0445 85.7542 44.4661C84.8093 43.9205 82.1049 43.5932 81.0514 43.5386C80.0413 43.4841 76.2835 43.5495 75.7404 42.5456C75.7404 42.5456 75.1974 41.8691 75.7948 39.9486C76.4247 37.9408 80.8016 37.166 82.6914 36.9915C82.6914 36.9915 87.8937 36.806 88.8495 37.8753C88.8386 37.8753 88.969 38.1263 88.806 38.4864ZM74.0353 50.2604C73.4054 50.7296 72.0695 50.5223 71.6894 49.9985C71.3092 49.5293 71.1789 47.6633 71.2549 44.7389C71.3309 41.7818 71.3961 38.1154 72.026 37.5371C72.6994 36.9478 73.1121 37.4607 73.3728 37.8644C73.6552 38.2572 73.9918 38.6937 74.0679 39.6212C74.133 40.5487 74.3503 45.4155 74.3503 45.4155C74.3503 45.4155 74.6326 49.8021 74.0353 50.2604ZM75.3929 34.569C73.5574 35.1801 72.2976 34.9727 71.2332 34.5144C70.7662 35.3328 70.4947 35.5838 70.1362 35.6384C69.6149 35.6929 69.1479 34.8527 69.061 34.5799C68.9741 34.3726 68.7243 34.0234 69.0284 33.1941C67.9858 32.2557 67.9098 30.9899 68.0835 30.1388C68.3442 29.1567 70.1037 25.4248 75.4581 24.9883C75.4581 24.9883 78.0755 24.7919 78.5208 26.1995H78.5969C78.5969 26.1995 81.1383 26.2105 81.084 28.4801C81.0514 30.7607 78.2602 33.5978 75.3929 34.569ZM70.3969 29.5168C69.8539 30.3897 69.8321 30.9135 70.0819 31.2736C70.701 30.3243 71.8305 28.8293 73.4923 27.6945C72.2107 27.8036 71.1354 28.3601 70.3969 29.5168ZM77.7931 28.0546C76.1097 28.3056 73.5031 30.5752 72.265 32.4303C74.1656 32.7794 77.5216 32.6485 79.0096 29.6041C78.9987 29.6041 79.7155 27.7163 77.7931 28.0546ZM123.496 45.6337C122.486 47.4014 119.651 51.0897 115.871 50.2276C114.622 53.2721 113.58 56.3383 112.982 60.9432C112.982 60.9432 112.852 61.8379 112.113 61.5215C111.386 61.2596 110.169 60.0375 109.93 58.3461C109.67 56.1201 110.658 52.3555 112.667 48.0452C112.081 47.085 111.679 45.7101 112.027 43.7569C112.027 43.7569 112.537 40.1341 116.154 36.8605C116.154 36.8605 116.588 36.4786 116.838 36.5986C117.12 36.7187 116.99 37.8971 116.762 38.4646C116.534 39.032 114.916 41.8473 114.916 41.8473C114.916 41.8473 113.905 43.7459 114.188 45.2409C116.089 42.3056 120.411 36.3804 123.094 38.2463C123.995 38.8901 124.408 40.2978 124.408 41.8145C124.397 43.1567 124.082 44.5753 123.496 45.6337ZM122.714 40.9852C122.714 40.9852 122.562 39.8176 121.432 41.1053C120.455 42.1855 118.695 44.2261 117.272 46.9868C118.76 46.8231 120.194 46.0047 120.628 45.5901C121.334 44.9572 122.974 43.2549 122.714 40.9852ZM69.9842 42.4692C69.7778 45.1099 68.7678 49.5511 61.6105 51.7444C56.886 53.1739 52.4222 52.4864 49.9894 51.8644C49.9351 52.8356 49.8265 53.2502 49.6744 53.4139C49.4681 53.6213 47.9258 54.516 47.0787 53.2502C46.6985 52.6501 46.503 51.5589 46.3944 50.5877C40.9206 48.0562 38.4008 44.4116 38.3031 44.2479C38.1836 44.1279 36.9346 42.8184 38.1836 41.2144C39.3566 39.7631 43.1905 38.3118 46.6442 37.7226C46.7637 34.7545 47.1113 32.5176 47.524 31.4918C48.0236 30.3024 48.6535 31.3718 49.1965 32.1793C49.6527 32.7794 49.9242 35.3656 49.9459 37.4279C52.205 37.3188 53.5409 37.4825 56.0606 37.9408C59.3406 38.541 61.5345 40.2214 61.339 42.131C61.1978 44.0078 59.4818 44.7826 58.8301 44.8371C58.1459 44.8917 57.0815 44.4007 57.0815 44.4007C56.3538 44.0515 57.0272 43.7459 57.9069 43.364C58.8627 42.8948 58.6455 42.4147 58.6455 42.4147C58.2871 41.3671 54.0296 40.636 49.7939 40.636C49.7722 42.9821 49.8916 46.8777 49.9459 49.1474C52.9109 49.7148 55.1266 49.6057 55.1266 49.6057C55.1266 49.6057 65.944 49.3001 66.2698 42.3601C66.6065 35.4092 55.485 28.742 47.2633 26.6251C39.0525 24.4645 34.4041 25.9704 34.0022 26.1777C33.5678 26.396 33.9696 26.4614 33.9696 26.4614C33.9696 26.4614 34.4149 26.5269 35.186 26.7888C36.0006 27.0507 35.3707 27.4762 35.3707 27.4762C33.9696 27.9236 32.3948 27.6399 32.0907 26.9961C31.7866 26.3523 32.297 25.774 32.8835 24.9447C33.47 24.0717 34.1108 24.1045 34.1108 24.1045C44.2657 20.569 56.6362 26.9634 56.6362 26.9634C68.2247 32.8667 70.2014 39.7849 69.9842 42.4692ZM39.3349 42.1092C38.1836 42.6766 38.9765 43.495 38.9765 43.495C41.1378 45.8301 43.7987 47.2923 46.3293 48.198C46.6225 44.1715 46.5791 42.753 46.6116 40.7233C42.6583 40.9961 40.3775 41.629 39.3349 42.1092Z" fill="white"/>
<path d="M145 41.28V42.7203C145 43.0368 144.75 43.2878 144.435 43.2878H137.604C137.604 43.6479 137.615 43.9643 137.615 44.2589C137.615 46.3868 137.528 48.1218 137.321 50.075C137.289 50.3696 137.05 50.5879 136.768 50.5879H135.29C135.138 50.5879 134.997 50.5224 134.899 50.4133C134.802 50.3042 134.747 50.1514 134.769 49.9986C134.976 48.0563 135.073 46.3431 135.073 44.2589C135.073 43.9534 135.073 43.637 135.062 43.2878H128.307C127.992 43.2878 127.742 43.0368 127.742 42.7203V41.28C127.742 40.9635 127.992 40.7126 128.307 40.7126H134.965C134.823 38.3665 134.541 36.1077 134.085 33.8162C134.063 33.6743 134.096 33.5325 134.183 33.4234C134.27 33.3142 134.4 33.2488 134.541 33.2488H136.138C136.387 33.2488 136.594 33.4234 136.648 33.6743C137.093 36.0422 137.376 38.3447 137.517 40.7126H144.435C144.739 40.7126 145 40.9744 145 41.28Z" fill="white"/>
<path d="M135.703 29.8551C132.173 21.1365 126.211 13.7054 118.456 8.35855C110.517 2.89167 101.209 0 91.543 0C75.5558 0 60.7199 7.97664 51.8683 21.3438C51.7706 21.4856 51.7488 21.6711 51.8031 21.8348C51.8574 22.0094 51.9878 22.1294 52.1507 22.184L53.3888 22.6096C53.4649 22.6314 53.5409 22.6423 53.606 22.6423C53.8341 22.6423 54.0513 22.5223 54.1817 22.3368C58.2436 16.3352 63.7392 11.3484 70.0819 7.90025C76.631 4.34296 84.049 2.45519 91.5321 2.45519C100.579 2.45519 109.3 5.13953 116.773 10.2027C124.06 15.1458 129.719 22.0531 133.14 30.1606C133.238 30.4007 133.477 30.5644 133.737 30.5644H135.214C135.388 30.5644 135.551 30.4771 135.638 30.3352C135.747 30.1934 135.768 30.0188 135.703 29.8551ZM53.606 22.2713C53.5735 22.2713 53.5409 22.2604 53.5083 22.2495C53.5409 22.2604 53.5735 22.2713 53.606 22.2713C53.6169 22.2713 53.6278 22.2713 53.6278 22.2713C53.6278 22.2713 53.6169 22.2713 53.606 22.2713ZM133.433 30.368C133.466 30.3898 133.498 30.4116 133.531 30.4225C133.498 30.4007 133.466 30.3898 133.433 30.368Z" fill="url(#paint0_radial_4_154)"/>
<defs>
<radialGradient id="paint0_radial_4_154" cx="0" cy="0" r="1" gradientUnits="userSpaceOnUse" gradientTransform="translate(134.316 30.5094) scale(82.5559 82.9444)">
<stop offset="0.00708621" stop-color="white"/>
<stop offset="0.0300991" stop-color="#CBFFFF"/>
<stop offset="0.0570069" stop-color="#96FFFF"/>
<stop offset="0.0842769" stop-color="#68FFFF"/>
<stop offset="0.1113" stop-color="#43FFFF"/>
<stop offset="0.1382" stop-color="#25FFFF"/>
<stop offset="0.1647" stop-color="#11FFFF"/>
<stop offset="0.1908" stop-color="#04FFFF"/>
<stop offset="0.2159" stop-color="#00FFFF"/>
<stop offset="1" stop-color="#0000FF" stop-opacity="0"/>
</radialGradient>
</defs>
</svg>
